<?xml version="1.0" encoding="UTF-8"?>
<!--Generator: Apple Native CoreSVG 341-->
<!DOCTYPE svg
PUBLIC "-//W3C//DTD SVG 1.1//EN"
       "http://www.w3.org/Graphics/SVG/1.1/DTD/svg11.dtd">
<svg version="1.1" xmlns="http://www.w3.org/2000/svg" xmlns:xlink="http://www.w3.org/1999/xlink" viewBox="0 0 46.4258 46.0742">
 <g>
  <rect height="46.0742" opacity="0" width="46.4258" x="0" y="0"/>
  <path d="M25 44.0625C25 45.1562 24.1016 46.0352 23.0273 46.0352C21.9336 46.0352 21.0352 45.1562 21.0352 44.0625C21.0352 42.9883 21.9336 42.0898 23.0273 42.0898C24.1016 42.0898 25 42.9883 25 44.0625ZM25 37.0508C25 38.125 24.1016 39.0234 23.0273 39.0234C21.9336 39.0234 21.0352 38.125 21.0352 37.0508C21.0352 35.9766 21.9336 35.0781 23.0273 35.0781C24.1016 35.0781 25 35.9766 25 37.0508ZM25 30.0391C25 31.1133 24.1016 32.0117 23.0273 32.0117C22.1543 32.0117 21.4056 31.4392 21.1406 30.6611C21.589 29.8622 22.0313 29.0217 22.4715 28.146C22.6478 28.0937 22.8345 28.0664 23.0273 28.0664C24.1016 28.0664 25 28.9453 25 30.0391ZM46.0547 23.0273C46.0547 24.1016 45.1562 25 44.0625 25C42.9883 25 42.0898 24.1016 42.0898 23.0273C42.0898 21.9336 42.9883 21.0352 44.0625 21.0352C45.1562 21.0352 46.0547 21.9336 46.0547 23.0273ZM3.96484 23.0273C3.96484 24.1016 3.06641 25 1.97266 25C0.898438 25 0 24.1016 0 23.0273C0 21.9336 0.898438 21.0352 1.97266 21.0352C3.06641 21.0352 3.96484 21.9336 3.96484 23.0273ZM10.9766 23.0273C10.9766 24.1016 10.0781 25 8.98438 25C7.91016 25 7.01172 24.1016 7.01172 23.0273C7.01172 21.9336 7.91016 21.0352 8.98438 21.0352C10.0781 21.0352 10.9766 21.9336 10.9766 23.0273ZM17.9883 23.0273C17.9883 24.1016 17.0898 25 16.0156 25C14.9219 25 14.0234 24.1016 14.0234 23.0273C14.0234 21.9336 14.9219 21.0352 16.0156 21.0352C17.0898 21.0352 17.9883 21.9336 17.9883 23.0273ZM32.0117 23.0273C32.0117 24.1016 31.1133 25 30.0391 25C28.9453 25 28.0664 24.1016 28.0664 23.0273C28.0664 21.9336 28.9453 21.0352 30.0391 21.0352C31.1133 21.0352 32.0117 21.9336 32.0117 23.0273ZM39.0234 23.0273C39.0234 24.1016 38.1445 25 37.0508 25C35.9766 25 35.0781 24.1016 35.0781 23.0273C35.0781 21.9336 35.9766 21.0352 37.0508 21.0352C38.1445 21.0352 39.0234 21.9336 39.0234 23.0273ZM25 23.0273C25 23.6862 24.6621 24.2789 24.1521 24.6377C24.2974 24.3364 24.4435 24.0157 24.5898 23.6914C24.7237 23.3946 24.8572 23.1009 24.9894 22.8232C24.9964 22.8903 25 22.9585 25 23.0273ZM21.4453 22.2656L21.0413 23.145C21.0364 23.1064 21.0352 23.067 21.0352 23.0273C21.0352 22.3846 21.3454 21.8094 21.8245 21.4459ZM24.875 15.3304C24.4145 16.1535 23.9601 17.0191 23.508 17.9246C23.3543 17.9669 23.1929 17.9883 23.0273 17.9883C21.9336 17.9883 21.0352 17.0898 21.0352 16.0156C21.0352 14.9219 21.9336 14.0234 23.0273 14.0234C23.8651 14.0234 24.596 14.5699 24.875 15.3304ZM25 8.98438C25 10.0781 24.1016 10.9766 23.0273 10.9766C21.9336 10.9766 21.0352 10.0781 21.0352 8.98438C21.0352 7.91016 21.9336 7.01172 23.0273 7.01172C24.1016 7.01172 25 7.91016 25 8.98438ZM25 1.97266C25 3.06641 24.1016 3.94531 23.0273 3.94531C21.9336 3.94531 21.0352 3.06641 21.0352 1.97266C21.0352 0.898438 21.9336 0 23.0273 0C24.1016 0 25 0.898438 25 1.97266Z" fill="black" fill-opacity="0.85"/>
  <path d="M1.73828 42.1875C0.820312 42.3438 0.15625 43.2617 0.292969 44.1797C0.46875 45.0977 1.36719 45.7617 2.28516 45.6055C13.3984 43.7695 18.7891 36.543 24.5898 23.6914C29.7266 12.3047 34.3164 5.42969 44.2969 3.78906C45.2344 3.63281 45.8789 2.71484 45.7422 1.79688C45.5664 0.878906 44.668 0.214844 43.75 0.371094C32.6367 2.1875 27.2461 9.41406 21.4453 22.2656C16.3086 33.6719 11.7188 40.5469 1.73828 42.1875Z" fill="black" fill-opacity="0.85"/>
 </g>
</svg>
